<?xml version="1.0" encoding="utf-8"?>
<!-- Generator: Adobe Illustrator 23.0.0, SVG Export Plug-In . SVG Version: 6.00 Build 0)  -->
<svg version="1.1" id="Camada_1" xmlns="http://www.w3.org/2000/svg" xmlns:xlink="http://www.w3.org/1999/xlink" x="0px" y="0px"
	 viewBox="0 0 16.5 49.8" style="enable-background:new 0 0 16.5 49.8;" xml:space="preserve">
<style type="text/css">
	.st0{fill:#FFFFFF;}
</style>
<g>
	<path class="st0" d="M14.9,49.5c-0.4,0-0.8-0.3-1.1-0.7L0.6,26.1c-0.2-0.4-0.3-0.9-0.3-1.4c0-0.4,0.1-0.8,0.3-1.1L13.8,1
		c0.3-0.5,0.7-0.7,1.1-0.7c0.1,0,0.2,0,0.3,0c0.5,0.1,0.8,0.6,1,1.3c0.1,0.7,0,1.4-0.3,1.9L3.4,24.9l12.5,21.4
		c0.3,0.5,0.4,1.2,0.3,1.9c-0.2,0.7-0.5,1.2-1,1.3C15.1,49.5,15,49.5,14.9,49.5z"/>
	<path class="st0" d="M14.9,0.5c0.1,0,0.1,0,0.2,0c0.4,0.1,0.7,0.5,0.8,1.2c0.1,0.6,0,1.3-0.3,1.7L3.1,24.9l12.6,21.5
		c0.3,0.4,0.4,1.1,0.3,1.7c-0.1,0.6-0.5,1.1-0.8,1.2c-0.1,0-0.1,0-0.2,0c-0.3,0-0.6-0.2-0.8-0.6L0.8,26c-0.2-0.3-0.3-0.8-0.3-1.2
		c0-0.4,0.1-0.8,0.3-1L14,1.1C14.3,0.7,14.6,0.5,14.9,0.5 M14.9,0L14.9,0c-0.5,0-1,0.3-1.3,0.9L0.3,23.5C0.1,23.8,0,24.3,0,24.8
		c0,0.6,0.1,1.1,0.3,1.5l13.2,22.6c0.3,0.5,0.8,0.9,1.3,0.9c0.1,0,0.3,0,0.4-0.1c0.5-0.1,1-0.7,1.2-1.5c0.1-0.7,0-1.5-0.3-2.1
		L3.7,24.9L16.1,3.6c0.3-0.5,0.5-1.3,0.3-2c-0.2-0.8-0.6-1.4-1.2-1.5C15.1,0,15,0,14.9,0L14.9,0z"/>
</g>
</svg>
