<svg version="1.1" id="Camada_1" xmlns="http://www.w3.org/2000/svg" x="0" y="0" viewBox="0 0 16.5 49.8" xml:space="preserve"><style>.st0{fill:#fff}</style><path class="st0" d="M14.9 49.5c-.4 0-.8-.3-1.1-.7L.6 26.1c-.2-.4-.3-.9-.3-1.4 0-.4.1-.8.3-1.1L13.8 1c.3-.5.7-.7 1.1-.7h.3c.5.1.8.6 1 1.3.1.7 0 1.4-.3 1.9L3.4 24.9l12.5 21.4c.3.5.4 1.2.3 1.9-.2.7-.5 1.2-1 1.3h-.3z"/><path class="st0" d="M14.9.5h.2c.4.1.7.5.8 1.2.1.6 0 1.3-.3 1.7L3.1 24.9l12.6 21.5c.3.4.4 1.1.3 1.7-.1.6-.5 1.1-.8 1.2H15c-.3 0-.6-.2-.8-.6L.8 26c-.2-.3-.3-.8-.3-1.2 0-.4.1-.8.3-1L14 1.1c.3-.4.6-.6.9-.6m0-.5c-.5 0-1 .3-1.3.9L.3 23.5c-.2.3-.3.8-.3 1.3 0 .6.1 1.1.3 1.5l13.2 22.6c.3.5.8.9 1.3.9.1 0 .3 0 .4-.1.5-.1 1-.7 1.2-1.5.1-.7 0-1.5-.3-2.1L3.7 24.9 16.1 3.6c.3-.5.5-1.3.3-2-.2-.8-.6-1.4-1.2-1.5-.1-.1-.2-.1-.3-.1z"/></svg>