<?xml version="1.0" encoding="utf-8"?>
<!-- Generator: Adobe Illustrator 23.0.0, SVG Export Plug-In . SVG Version: 6.00 Build 0)  -->
<svg version="1.1" id="Camada_1" xmlns="http://www.w3.org/2000/svg" xmlns:xlink="http://www.w3.org/1999/xlink" x="0px" y="0px"
	 viewBox="0 0 21 13" style="enable-background:new 0 0 21 13;" xml:space="preserve">
<style type="text/css">
	.st0{fill:#BABBBA;stroke:#BABBBA;stroke-width:0.5;}
</style>
<path class="st0" d="M19.9,6.3l-5.2,5.5c-0.1,0.1-0.3,0.1-0.5,0c-0.1-0.1-0.1-0.3,0-0.5l4.6-4.9H0.3C0.1,6.4,0,6.3,0,6.1
	c0,0,0,0,0,0c0-0.2,0.1-0.3,0.3-0.3h18.6l-4.6-4.9c-0.1-0.1-0.1-0.3,0-0.5c0.1-0.1,0.3-0.1,0.5,0l5.2,5.5C20,6,20,6.2,19.9,6.3z"/>
</svg>
