<svg width="24" height="24" xmlns="http://www.w3.org/2000/svg"><g fill="none"><path d="M13.25 1.375h-2.125v3.312a1.063 1.063 0 0 0 2.125 0V1.376zm6.938 11.313h-2.125V1.5a1.063 1.063 0 0 1 2.125 0v11.188z" stroke="#D8D8D8" stroke-width=".5" fill="#D8D8D8"/><rect stroke="#D8D8D8" stroke-width=".5" fill="#D8D8D8" transform="matrix(-1 0 0 1 31.125 0)" x="11.125" y=".25" width="8.875" height="2.125" rx="1.063"/><rect stroke="#D8D8D8" stroke-width=".5" fill="#D8D8D8" transform="matrix(-1 0 0 1 24.375 0)" x="8.875" y="5.125" width="6.625" height="2.125" rx="1.063"/><path d="M2.959 14.25a1.643 1.643 0 0 0-1.368 2.554l1.611 2.42a3.562 3.562 0 0 0 2.966 1.588h11.731a3.563 3.563 0 0 0 3.005-1.649l1.488-2.337a1.676 1.676 0 0 0-1.413-2.576H2.959z" stroke="#D8D8D8" stroke-width="2.625"/><path d="M19.56 19.193l2.044 2.918a1.313 1.313 0 0 1-2.15 1.506l-2.044-2.919 2.15-1.505zM6.663 20.698L4.62 23.617a1.313 1.313 0 0 1-2.15-1.506l2.043-2.918 2.15 1.505z" fill="#D8D8D8"/></g></svg>