<?xml version="1.0" encoding="UTF-8"?>
<svg width="64px" height="64px" viewBox="0 0 64 64" version="1.1" xmlns="http://www.w3.org/2000/svg" xmlns:xlink="http://www.w3.org/1999/xlink">
    <!-- Generator: sketchtool 51.3 (57544) - http://www.bohemiancoding.com/sketch -->
    <title>F7801588-62D0-4600-AB91-02FCD7AE7ECE</title>
    <desc>Created with sketchtool.</desc>
    <defs></defs>
    <g id="Symbols" stroke="none" stroke-width="1" fill="none" fill-rule="evenodd">
        <g id="icon/preto/atendimento/large" fill="#3D4345" fill-rule="nonzero" stroke="#3D4345" stroke-width="2">
            <g id="chat-large-black" transform="translate(1.000000, 1.000000)">
                <path d="M1.92682222,46.0189506 C2.31053333,46.1988042 2.71215556,46.2859821 3.10964444,46.2859821 C3.91908889,46.2859821 4.71131111,45.9231334 5.301,45.2429885 L12.4661333,37.0812495 L20.5592,37.0812495 L20.5592,38.0464898 C20.5592,46.1775987 26.3617111,52.7921259 33.4930889,52.7921259 L49.5297333,52.7921259 L56.6941778,60.9609333 C57.2900667,61.6402929 58.0809111,62 58.8882889,62 C59.2899111,62 59.6949778,61.9112513 60.0814444,61.7282562 C61.2470444,61.1784855 62,59.8935928 62,58.4547643 L62,30.4604393 C62,22.3293304 56.1974889,15.7148033 49.0661111,15.7148033 L41.4359778,15.7148033 L41.4359778,14.7440653 C41.4359778,6.61452712 35.6348444,0 28.5034667,0 L12.9318222,0 C5.80113333,-0.00078538674 0,6.61374173 0,14.7432799 L0,42.7376048 C0,44.1835018 0.7564,45.4707507 1.92682222,46.0189506 Z M49.4943182,20.6666667 C54.2534673,20.6666667 58.125,25.067586 58.125,30.4757358 L58.125,55.1111111 L52.6952845,48.9392631 C52.1044649,48.2677762 51.3180923,47.8981431 50.4824848,47.8981431 L33.8181818,47.8981431 C29.0590327,47.8981431 25.1875,43.4972237 25.1875,38.089074 L25.1875,30.4757358 C25.1875,25.0667979 29.0597262,20.6666667 33.8181818,20.6666667 L49.4943182,20.6666667 Z M4.84375,14.7301478 C4.84375,9.32088412 8.71515985,4.92063492 13.4736233,4.92063492 L29.1506832,4.92063492 C33.9098402,4.92063492 37.78125,9.32088412 37.78125,14.7301478 L37.78125,15.7044775 L34.1740836,15.7044775 C26.993735,15.7044775 21.1526362,22.3442659 21.1526362,30.5046707 L21.1526362,32.1616617 L12.4846175,32.1616617 C11.6488868,32.1616617 10.8637854,32.5297944 10.2735722,33.1990548 L4.84375,39.3650794 L4.84375,14.7301478 Z" id="Shape"></path>
            </g>
        </g>
    </g>
</svg>