<svg width="64" height="64" xmlns="http://www.w3.org/2000/svg"><path d="M2.927 47.019c.384.18.785.267 1.183.267.81 0 1.601-.363 2.191-1.043l7.165-8.162h8.093v.965c0 8.132 5.803 14.746 12.934 14.746H50.53l7.164 8.169c.596.68 1.387 1.039 2.194 1.039a2.78 2.78 0 0 0 1.193-.272c1.166-.55 1.919-1.834 1.919-3.273V31.46c0-8.13-5.803-14.745-12.934-14.745h-7.63v-.97C42.436 7.614 36.635 1 29.503 1H13.932C6.802 1 1 7.614 1 15.743v27.995c0 1.446.756 2.733 1.927 3.281zm47.567-25.352c4.76 0 8.631 4.4 8.631 9.809V56.11l-5.43-6.172c-.59-.671-1.377-1.04-2.213-1.04H34.818c-4.759 0-8.63-4.402-8.63-9.81v-7.613c0-5.41 3.872-9.81 8.63-9.81h15.676zM5.844 15.73c0-5.41 3.871-9.81 8.63-9.81H30.15c4.759 0 8.63 4.4 8.63 9.81v.974h-3.607c-7.18 0-13.021 6.64-13.021 14.8v1.658h-8.668c-.836 0-1.621.368-2.211 1.037l-5.43 6.166V15.73z" fill="#3D4345" stroke="#3D4345" stroke-width="2"/></svg>