<svg width="24" height="25" xmlns="http://www.w3.org/2000/svg"><g transform="translate(0 1)" fill="none"><path fill="#D8D8D8" d="M10.875 22.219V6.749H13.5v15.47z"/><path d="M13.687 2.625h2.251c.227-.001.432-.162.518-.406a.736.736 0 0 0-.118-.715L15.212.194a.526.526 0 0 0-.4-.194.53.53 0 0 0-.4.194l-1.125 1.31a.736.736 0 0 0-.118.715c.086.244.29.405.518.406zm-4.149-.194c.106.124.25.194.4.194a.53.53 0 0 0 .4-.194l1.125-1.31a.736.736 0 0 0 .118-.715c-.086-.244-.29-.405-.518-.406H8.812c-.227.001-.432.162-.518.406a.736.736 0 0 0 .118.715l1.126 1.31z" stroke="#D8D8D8" stroke-width=".5" fill="#D8D8D8"/><rect stroke="#D8D8D8" stroke-width="2.625" x="1.313" y="5.438" width="21.375" height="17.25" rx="3"/></g></svg>