<svg width="21" height="22" viewBox="0 0 21 22" fill="none" xmlns="http://www.w3.org/2000/svg">
<path d="M18.75 0.5H2.25C1.65326 0.5 1.08097 0.737053 0.65901 1.15901C0.237053 1.58097 0 2.15326 0 2.75L0 19.25C0 19.8467 0.237053 20.419 0.65901 20.841C1.08097 21.2629 1.65326 21.5 2.25 21.5H8.68359V14.3605H5.73047V11H8.68359V8.43875C8.68359 5.52547 10.418 3.91625 13.0744 3.91625C14.3466 3.91625 15.6769 4.14313 15.6769 4.14313V7.0025H14.2111C12.7669 7.0025 12.3164 7.89875 12.3164 8.81797V11H15.5405L15.0248 14.3605H12.3164V21.5H18.75C19.3467 21.5 19.919 21.2629 20.341 20.841C20.7629 20.419 21 19.8467 21 19.25V2.75C21 2.15326 20.7629 1.58097 20.341 1.15901C19.919 0.737053 19.3467 0.5 18.75 0.5Z" fill="white"/>
</svg>
