<svg width="64" height="64" xmlns="http://www.w3.org/2000/svg"><path d="M58.44 9.297l3.983 4.124c.428.444.686.977.562 1.49-.125.512-.332.953-.663 1.272l-4.287 4.14 3.327 3.446c.428.444.686.977.562 1.489-.125.512-.332.953-.663 1.273l-6.864 6.628c-.766.74-2.042.75-2.763.004l-6.083-6.299-18.942 18.293 6.082 6.298c.721.747.666 2.022-.1 2.762l-6.864 6.628c-.766.74-2.043.751-2.763.005l-3.327-3.446-4.288 4.14c-.767.741-2.043.751-2.764.005l-3.983-4.125-1.57 1.517c-.767.74-2.043.75-2.764.004-.721-.746-.666-2.021.1-2.761l1.571-1.517-3.983-4.125c-.72-.746-.666-2.021.1-2.762l4.288-4.14-3.327-3.445c-.72-.747-.666-2.022.1-2.762l6.864-6.628c.767-.74 2.043-.751 2.764-.005l6.673 6.91 19.014-18.36-6.608-6.843c-.428-.444-.686-.977-.561-1.489.124-.512.331-.954.662-1.273l6.864-6.628c.766-.74 2.043-.75 2.763-.004l3.327 3.445 4.288-4.14c.767-.74 2.043-.751 2.764-.005l3.983 4.125 1.57-1.517c.777-.75 2.095-.76 2.627-.003.72.746.666 2.022-.1 2.762L58.44 9.297zM14.25 57.54l2.855-2.757-8.032-8.318-2.856 2.758 8.032 8.317zm14.377-4.562L11.212 34.945l-4 3.862 17.415 18.034 4-3.863zm-4.55-10.443l18.942-18.293-1.995-2.066L22.08 40.468l1.996 2.067zm29.292-13.45l4-3.862-17.35-17.965-3.999 3.862 17.35 17.965zm2.14-11.52l2.855-2.758-8.032-8.317-2.855 2.758 8.032 8.317z" fill="#D8D8D8" stroke="#D8D8D8"/></svg>