<svg xmlns="http://www.w3.org/2000/svg" width="22" height="20"><path fill="#3D4345" d="M10.753 2.489c-1.93 0-3.493 1.591-3.493 3.554 0 1.963 1.564 3.555 3.493 3.555 1.93 0 3.494-1.592 3.494-3.555S12.683 2.49 10.753 2.49zm.287 5.589v.662h-.614v-.617c-.443-.02-.858-.137-1.103-.282l.19-.768c.272.15.651.288 1.07.288.368 0 .62-.144.62-.406 0-.25-.208-.407-.685-.572-.691-.236-1.16-.564-1.16-1.202 0-.577.403-1.03 1.092-1.168v-.625h.639v.58c.418.02.718.111.93.216l-.189.742c-.168-.072-.466-.223-.93-.223-.42 0-.556.184-.556.367 0 .217.225.355.774.565.769.276 1.074.637 1.074 1.228 0 .585-.414 1.084-1.152 1.215zm7.17 4.99h1.346c.762 0 1.457-.294 1.983-.776v1.716c0 1.107-.894 2.01-1.983 2.01H1.982c-.476 0-1.015-.226-1.27-.45-.319-.28-.712-.945-.712-1.56v-1.39h.423c.47.292 1.013.45 1.56.45h1.283c.36.414.661.902.866 1.45h13.26a4.644 4.644 0 0 1 .817-1.45zm0 3.952h1.346a2.93 2.93 0 0 0 1.983-.775v1.715c0 1.108-.894 2.011-1.983 2.011H1.982c-.476 0-1.015-.226-1.27-.45-.319-.28-.712-.945-.712-1.56V16.57h.423c.47.292 1.013.45 1.56.45h1.283c.36.414.661.902.866 1.45h13.26a4.636 4.636 0 0 1 .817-1.45zM19.555.036c1.089 0 1.983.88 1.983 1.986v8.03c0 1.106-.894 2.015-1.983 2.015H1.982c-.476 0-1.015-.227-1.27-.45-.32-.283-.712-.95-.712-1.566V2.022C0 .916.894.036 1.982.036h17.574zm-2.165 10.53c.48-1.376 1.517-2.348 2.674-2.77V4.288c-1.181-.406-2.185-1.326-2.662-2.777H4.123c-.488 1.376-1.516 2.327-2.648 2.751v3.564a4.788 4.788 0 0 1 2.657 2.74h13.26z"/></svg>