<svg xmlns="http://www.w3.org/2000/svg" width="21" height="21"><path fill="#3D4345" stroke="#3D4345" stroke-width=".635" d="M20.07 15.01a.878.878 0 0 1-.375.085.919.919 0 0 1-.695-.333l-2.275-2.605h-2.569v.308c0 2.596-1.841 4.707-4.105 4.707H4.96L2.685 19.78a.924.924 0 0 1-.696.332.878.878 0 0 1-.38-.087c-.37-.176-.608-.586-.608-1.045v-8.937c0-2.596 1.842-4.707 4.106-4.707H7.53v-.31c0-2.595 1.84-4.707 4.105-4.707h4.943c2.263 0 4.105 2.112 4.105 4.707v8.936c0 .462-.24.873-.612 1.048zM4.973 6.917c-1.511 0-2.74 1.405-2.74 3.131v7.864l1.724-1.97a.929.929 0 0 1 .702-.332h5.29c1.51 0 2.74-1.405 2.74-3.132v-2.43c0-1.727-1.23-3.131-2.74-3.131H4.972zm14.173-1.895c0-1.727-1.229-3.132-2.74-3.132H11.43c-1.51 0-2.74 1.405-2.74 3.132v.31h1.146c2.279 0 4.133 2.12 4.133 4.725v.53h2.752c.265 0 .514.117.701.33l1.724 1.969V5.022zM7.531 13.41c.737-.131 1.152-.63 1.152-1.214 0-.592-.306-.953-1.075-1.228-.549-.21-.773-.348-.773-.565 0-.184.136-.368.555-.368.465 0 .763.152.93.224l.19-.742c-.213-.106-.513-.197-.93-.217v-.58h-.64v.625c-.689.138-1.092.591-1.092 1.169 0 .637.47.965 1.16 1.202.478.164.685.322.685.571 0 .262-.251.407-.62.407-.418 0-.798-.138-1.069-.289l-.19.768c.244.145.66.263 1.102.283v.616h.615v-.662z"/></svg>