<svg width="21" height="22" viewBox="0 0 21 22" fill="none" xmlns="http://www.w3.org/2000/svg">
<path d="M10.5048 5.6094C7.52354 5.6094 5.11885 8.01409 5.11885 10.9953C5.11885 13.9766 7.52354 16.3813 10.5048 16.3813C13.486 16.3813 15.8907 13.9766 15.8907 10.9953C15.8907 8.01409 13.486 5.6094 10.5048 5.6094ZM10.5048 14.4969C8.57822 14.4969 7.00322 12.9266 7.00322 10.9953C7.00322 9.06409 8.57353 7.49377 10.5048 7.49377C12.436 7.49377 14.0063 9.06409 14.0063 10.9953C14.0063 12.9266 12.4313 14.4969 10.5048 14.4969ZM17.3673 5.38909C17.3673 6.08752 16.8048 6.64534 16.111 6.64534C15.4126 6.64534 14.8548 6.08284 14.8548 5.38909C14.8548 4.69534 15.4173 4.13284 16.111 4.13284C16.8048 4.13284 17.3673 4.69534 17.3673 5.38909ZM20.9345 6.66409C20.8548 4.98127 20.4704 3.49065 19.2376 2.26252C18.0095 1.0344 16.5188 0.650024 14.836 0.565649C13.1017 0.467212 7.90322 0.467212 6.16885 0.565649C4.49072 0.645337 3.0001 1.02971 1.76729 2.25784C0.534473 3.48596 0.154785 4.97659 0.0704102 6.6594C-0.0280273 8.39377 -0.0280273 13.5922 0.0704102 15.3266C0.150098 17.0094 0.534473 18.5 1.76729 19.7281C3.0001 20.9563 4.48604 21.3406 6.16885 21.425C7.90322 21.5235 13.1017 21.5235 14.836 21.425C16.5188 21.3453 18.0095 20.961 19.2376 19.7281C20.4657 18.5 20.8501 17.0094 20.9345 15.3266C21.0329 13.5922 21.0329 8.39846 20.9345 6.66409ZM18.6938 17.1875C18.3282 18.1063 17.6204 18.8141 16.697 19.1844C15.3142 19.7328 12.0329 19.6063 10.5048 19.6063C8.97666 19.6063 5.69072 19.7281 4.3126 19.1844C3.39385 18.8188 2.68604 18.111 2.31572 17.1875C1.76729 15.8047 1.89385 12.5235 1.89385 10.9953C1.89385 9.46721 1.77197 6.18127 2.31572 4.80315C2.68135 3.8844 3.38916 3.17659 4.3126 2.80627C5.69541 2.25784 8.97666 2.3844 10.5048 2.3844C12.0329 2.3844 15.3188 2.26252 16.697 2.80627C17.6157 3.1719 18.3235 3.87971 18.6938 4.80315C19.2423 6.18596 19.1157 9.46721 19.1157 10.9953C19.1157 12.5235 19.2423 15.8094 18.6938 17.1875Z" fill="white"/>
</svg>
