<svg xmlns="http://www.w3.org/2000/svg" width="15" height="15" viewBox="0 0 15 15">
    <path fill="#3D4345" fill-rule="nonzero" d="M7.503 3.675a3.828 3.828 0 0 0-3.83 3.838 3.828 3.828 0 0 0 3.83 3.839c2.12 0 3.83-1.714 3.83-3.839a3.828 3.828 0 0 0-3.83-3.838zm0 6.334a2.495 2.495 0 1 1 0-4.991 2.495 2.495 0 0 1 0 4.99zm4.88-6.491a.892.892 0 1 1-1.786 0 .894.894 0 1 1 1.786 0zm2.537.909c-.057-1.2-.33-2.262-1.207-3.137C12.84.414 11.78.14 10.583.08 9.35.01 5.653.01 4.42.08 3.227.137 2.167.41 1.29 1.286.413 2.161.143 3.224.083 4.423c-.07 1.236-.07 4.941 0 6.177.057 1.2.33 2.262 1.207 3.137s1.933 1.15 3.13 1.21c1.233.07 4.93.07 6.163 0 1.197-.057 2.257-.331 3.13-1.21.874-.875 1.147-1.937 1.207-3.137.07-1.236.07-4.937 0-6.173zm-1.593 7.5a2.524 2.524 0 0 1-1.42 1.423c-.984.39-3.317.3-4.404.3-1.086 0-3.423.087-4.403-.3a2.524 2.524 0 0 1-1.42-1.423c-.39-.986-.3-3.325-.3-4.414 0-1.089-.087-3.43.3-4.413.26-.655.763-1.159 1.42-1.423.983-.39 3.317-.3 4.403-.3 1.087 0 3.424-.087 4.404.3.653.26 1.156.765 1.42 1.423.39.986.3 3.324.3 4.413 0 1.09.09 3.431-.3 4.414z"/>
</svg>
