<svg width="24" height="24" xmlns="http://www.w3.org/2000/svg"><path d="M20.4 15.6h-1.2v-1.2c0-.72-.48-1.2-1.2-1.2s-1.2.48-1.2 1.2v1.2h-3.6V9.48c2.04-.48 3.6-2.4 3.6-4.68C16.8 2.16 14.64 0 12 0 9.36 0 7.2 2.16 7.2 4.8c0 2.28 1.56 4.08 3.6 4.68v6.12H7.2v-1.2c0-.72-.48-1.2-1.2-1.2s-1.2.48-1.2 1.2v1.2H3.6c-2.04 0-3.6 1.56-3.6 3.6v1.2C0 22.44 1.56 24 3.6 24h16.8c2.04 0 3.6-1.56 3.6-3.6v-1.2c0-2.04-1.56-3.6-3.6-3.6zM9.6 4.8c0-1.32 1.08-2.4 2.4-2.4 1.32 0 2.4 1.08 2.4 2.4 0 1.32-1.08 2.4-2.4 2.4-1.32 0-2.4-1.08-2.4-2.4zm12 15.6c0 .72-.48 1.2-1.2 1.2H3.6c-.72 0-1.2-.48-1.2-1.2v-1.2c0-.72.48-1.2 1.2-1.2h16.8c.72 0 1.2.48 1.2 1.2v1.2z" fill="#D8D8D8"/></svg>