<?xml version="1.0" encoding="utf-8"?>
<!-- Generator: Adobe Illustrator 22.0.1, SVG Export Plug-In . SVG Version: 6.00 Build 0)  -->
<svg version="1.1" id="Capa_1" xmlns="http://www.w3.org/2000/svg" xmlns:xlink="http://www.w3.org/1999/xlink" x="0px" y="0px"
	 viewBox="0 0 510 510" style="enable-background:new 0 0 510 510;" xml:space="preserve">
<style type="text/css">
	.st0{fill:#3D4345;}
</style>
<g>
	<g id="post-linkedin">
		<path class="st0" d="M459,0H51C23,0,0,23,0,51v408c0,28,23,51,51,51h408c28,0,51-23,51-51V51C510,23,487,0,459,0z M153,433.5H76.5
			V204H153V433.5z M114.8,160.7c-25.5,0-45.9-20.4-45.9-45.9s20.4-45.9,45.9-45.9s45.9,20.4,45.9,45.9S140.2,160.7,114.8,160.7z
			 M433.5,433.5H357V298.4c0-20.4-17.9-38.2-38.2-38.2s-38.2,17.9-38.2,38.2v135.1H204V204h76.5v30.6c12.8-20.4,40.8-35.7,63.8-35.7
			c48.5,0,89.2,40.8,89.2,89.3V433.5z"/>
	</g>
</g>
</svg>
