<svg xmlns="http://www.w3.org/2000/svg" width="14" height="14"><path fill="#4138EC" d="M13.743.247a.552.552 0 0 0-.54-.05L9.417 1.884 5.062.185a.461.461 0 0 0-.061-.014.429.429 0 0 0-.08-.022.464.464 0 0 0-.059 0 .398.398 0 0 0-.073 0c-.021 0-.041.01-.063.014a.573.573 0 0 0-.071.023h-.013L.644 1.968a.595.595 0 0 0-.35.557v10.101a.6.6 0 0 0 .256.496.555.555 0 0 0 .54.05l3.786-1.688 4.355 1.699h.017c.059.023.12.035.183.037a.552.552 0 0 0 .201-.043h.025l3.997-1.782a.596.596 0 0 0 .346-.551V.743a.6.6 0 0 0-.257-.496zM1.435 2.917l2.856-1.273v8.807l-2.856 1.273V2.917zM5.433 1.6L8.86 2.937v8.832l-3.427-1.337V1.6zm7.425 8.851l-2.856 1.273V2.917l2.856-1.273v8.807z"/></svg>