<svg xmlns="http://www.w3.org/2000/svg" width="14" height="14"><path fill="#4138EC" d="M.862 7.467a2.872 2.872 0 0 0 2.871 2.871h2.872v2.872a.574.574 0 1 0 1.149 0v-2.872h2.872a2.872 2.872 0 0 0 2.871-2.871 2.837 2.837 0 0 0-1.203-2.33c.036-.178.054-.36.055-.542a2.872 2.872 0 0 0-2.536-2.853 2.862 2.862 0 0 0-5.267 0A2.872 2.872 0 0 0 2.01 4.595c0 .182.019.364.055.543A2.837 2.837 0 0 0 .862 7.467zM2.99 5.922a.574.574 0 0 0 .287-.718 1.71 1.71 0 0 1 1.565-2.332c.021 0 .08.008.1.008a.565.565 0 0 0 .575-.43 1.714 1.714 0 0 1 3.325 0c.067.26.306.439.575.43.034 0 .067 0 .06-.007a1.709 1.709 0 0 1 1.607 2.328.574.574 0 0 0 .287.718 1.723 1.723 0 0 1-.745 3.27H7.754V7.792l1.973-.956a.574.574 0 0 0-.5-1.034l-1.473.714V4.02a.574.574 0 0 0-1.149 0V7.1l-1.469-.718a.575.575 0 0 0-.508 1.03l1.977.967v.81H3.733A1.723 1.723 0 0 1 2.01 7.467c0-.662.381-1.264.98-1.545z"/></svg>