<svg width="34" height="34" xmlns="http://www.w3.org/2000/svg"><path d="M1.994 24.752c.199.093.406.138.611.138.418 0 .827-.188 1.131-.539l3.698-4.212h4.177v.498c0 4.197 2.995 7.61 6.676 7.61h8.277l3.698 4.217c.307.35.715.536 1.132.536.207 0 .416-.046.616-.14.601-.284.99-.947.99-1.69V16.722c0-4.197-2.995-7.611-6.676-7.611h-3.938V8.61c0-4.196-2.994-7.61-6.675-7.61H7.674C3.994 1 1 4.414 1 8.61v14.448c0 .746.39 1.41.994 1.694zm24.551-13.085c2.457 0 4.455 2.271 4.455 5.062v12.715l-2.802-3.185a1.514 1.514 0 0 0-1.143-.537h-8.6c-2.457 0-4.455-2.272-4.455-5.063v-3.93c0-2.791 1.999-5.062 4.455-5.062h8.09zM3.5 8.603C3.5 5.81 5.498 3.54 7.954 3.54h8.092c2.456 0 4.454 2.27 4.454 5.063v.503h-1.862c-3.706 0-6.72 3.427-6.72 7.638v.856H7.443c-.432 0-.837.19-1.142.535L3.5 21.317V8.603z" fill="#3D4345" stroke="#3D4345"/></svg>