<svg width="32" height="32" xmlns="http://www.w3.org/2000/svg"><path d="M27.207 4.65C24.214 1.65 20.23 0 15.993 0 7.25 0 .136 7.114.136 15.857c0 2.793.728 5.522 2.114 7.929L0 32l8.407-2.207a15.809 15.809 0 0 0 7.579 1.928h.007C24.729 31.721 32 24.607 32 15.864c0-4.235-1.8-8.214-4.793-11.214zm-11.214 24.4c-2.372 0-4.693-.636-6.714-1.836L8.8 26.93l-4.986 1.307 1.329-4.865-.314-.5a13.136 13.136 0 0 1-2.015-7.014C2.814 8.593 8.73 2.68 16 2.68a13.06 13.06 0 0 1 9.314 3.864c2.486 2.493 4.015 5.8 4.007 9.321 0 7.272-6.064 13.186-13.328 13.186zm7.228-9.871c-.392-.2-2.342-1.158-2.707-1.286-.364-.136-.628-.2-.893.2-.264.4-1.021 1.286-1.257 1.557-.228.264-.464.3-.857.1-2.328-1.164-3.857-2.079-5.393-4.714-.407-.7.407-.65 1.165-2.165.128-.264.064-.492-.036-.692-.1-.2-.893-2.15-1.222-2.943-.321-.772-.65-.665-.892-.679-.229-.014-.493-.014-.758-.014-.264 0-.692.1-1.057.493-.364.4-1.385 1.357-1.385 3.307s1.421 3.836 1.614 4.1c.2.264 2.793 4.264 6.771 5.986 2.515 1.085 3.5 1.178 4.757.992.765-.114 2.343-.957 2.672-1.885.328-.929.328-1.722.228-1.886-.092-.179-.357-.279-.75-.471z" fill="#0AD561"/></svg>