<?xml version="1.0" encoding="UTF-8"?>
<svg width="34px" height="34px" viewBox="0 0 34 34" version="1.1" xmlns="http://www.w3.org/2000/svg" xmlns:xlink="http://www.w3.org/1999/xlink">
    <!-- Generator: sketchtool 51.3 (57544) - http://www.bohemiancoding.com/sketch -->
    <title>F87224FD-5887-4AF8-8B8A-F6191645E87A</title>
    <desc>Created with sketchtool.</desc>
    <defs></defs>
    <g id="Symbols" stroke="none" stroke-width="1" fill="none" fill-rule="evenodd">
        <g id="contato/card-copy-3" transform="translate(-43.000000, -43.000000)" fill="#3D4345" fill-rule="nonzero" stroke="#3D4345">
            <g id="chat-medium-black" transform="translate(44.000000, 44.000000)">
                <path d="M0.994488889,23.7517165 C1.19253333,23.8445441 1.39982222,23.8895392 1.60497778,23.8895392 C2.02275556,23.8895392 2.43164444,23.7022624 2.736,23.3512199 L6.43413333,19.1387094 L10.6112,19.1387094 L10.6112,19.636898 C10.6112,23.8335994 13.6060444,27.2475488 17.2867556,27.2475488 L25.5637333,27.2475488 L29.2615111,31.4637075 C29.5690667,31.8143447 29.9772444,32 30.3939556,32 C30.6012444,32 30.8103111,31.9541942 31.0097778,31.8597451 C31.6113778,31.5759925 32,30.9128221 32,30.1702009 L32,15.7215171 C32,11.5248157 29.0051556,8.11086621 25.3244444,8.11086621 L21.3863111,8.11086621 L21.3863111,7.60984014 C21.3863111,3.41394948 18.3921778,0 14.7114667,0 L6.67448889,0 C2.99413333,-0.000405360898 0,3.41354412 0,7.60943477 L0,22.0581186 C0,22.804388 0.3904,23.4687745 0.994488889,23.7517165 Z M25.5454545,10.6666667 C28.0017895,10.6666667 30,12.9381089 30,15.729412 L30,28.4444444 L27.1975662,25.2589745 C26.8926271,24.9124006 26.4867573,24.7216222 26.055476,24.7216222 L17.4545455,24.7216222 C14.9982105,24.7216222 13,22.45018 13,19.6588769 L13,15.729412 C13,12.9377021 14.9985684,10.6666667 17.4545455,10.6666667 L25.5454545,10.6666667 Z M2.5,7.60265695 C2.5,4.8107789 4.49814702,2.53968254 6.95412815,2.53968254 L15.0455139,2.53968254 C17.501853,2.53968254 19.5,4.8107789 19.5,7.60265695 L19.5,8.10553676 L17.6382367,8.10553676 C13.9322503,8.10553676 10.9174896,11.5325243 10.9174896,15.7443462 L10.9174896,16.5995673 L6.44367354,16.5995673 C6.01232865,16.5995673 5.60711503,16.7895713 5.30248889,17.134996 L2.5,20.3174603 L2.5,7.60265695 Z" id="Shape"></path>
            </g>
        </g>
    </g>
</svg>