<svg width="13" height="20" viewBox="0 0 13 20" fill="none" xmlns="http://www.w3.org/2000/svg">
<path d="M6.499 3.9982C7.16204 3.9982 7.79793 4.26159 8.26677 4.73043C8.73561 5.19927 8.999 5.83516 8.999 6.4982C8.999 7.16124 8.73561 7.79713 8.26677 8.26597C7.79793 8.73481 7.16204 8.9982 6.499 8.9982C5.83596 8.9982 5.20007 8.73481 4.73123 8.26597C4.26239 7.79713 3.999 7.16124 3.999 6.4982C3.999 5.83516 4.26239 5.19927 4.73123 4.73043C5.20007 4.26159 5.83596 3.9982 6.499 3.9982ZM6.499 4.9982C6.10118 4.9982 5.71964 5.15624 5.43834 5.43754C5.15704 5.71884 4.999 6.10038 4.999 6.4982C4.999 6.89602 5.15704 7.27756 5.43834 7.55886C5.71964 7.84016 6.10118 7.9982 6.499 7.9982C6.89682 7.9982 7.27836 7.84016 7.55966 7.55886C7.84096 7.27756 7.999 6.89602 7.999 6.4982C7.999 6.10038 7.84096 5.71884 7.55966 5.43754C7.27836 5.15624 6.89682 4.9982 6.499 4.9982ZM1.799 9.3552L6.499 17.0852L11.199 9.3552C11.7059 8.5212 11.9817 7.56735 11.9982 6.59153C12.0147 5.61571 11.7712 4.65308 11.2928 3.80244C10.8144 2.9518 10.1182 2.24378 9.27578 1.75105C8.43333 1.25832 7.47496 0.998629 6.499 0.998629C5.52304 0.998629 4.56467 1.25832 3.72222 1.75105C2.87978 2.24378 2.18362 2.9518 1.70519 3.80244C1.22677 4.65308 0.9833 5.61571 0.999785 6.59153C1.01627 7.56735 1.29211 8.5212 1.799 9.3552ZM12.053 9.8752L6.499 19.0102L0.945 9.8752C0.346122 8.88955 0.020281 7.7623 0.000916494 6.60914C-0.018448 5.45597 0.269361 4.31842 0.834808 3.31321C1.40026 2.30801 2.22298 1.47136 3.21854 0.889113C4.21411 0.306868 5.34667 0 6.5 0C7.65333 0 8.78589 0.306868 9.78146 0.889113C10.777 1.47136 11.5997 2.30801 12.1652 3.31321C12.7306 4.31842 13.0184 5.45597 12.9991 6.60914C12.9797 7.7623 12.6539 8.88955 12.055 9.8752H12.053Z" fill="#E3072A"/>
</svg>
