<svg width="25" height="26" xmlns="http://www.w3.org/2000/svg"><path d="M23.64 18.25c-.452 0-.644-.182-1.077-.637a3.162 3.162 0 0 0-2.53-1.238 3.162 3.162 0 0 0-2.53 1.238c-.433.469-.625.638-1.078.638-.453 0-.645-.183-1.078-.638a3.156 3.156 0 0 0-2.527-1.238 3.156 3.156 0 0 0-2.528 1.238c-.433.474-.63.638-1.082.638-.453 0-.645-.183-1.078-.638a3.167 3.167 0 0 0-2.533-1.238 3.167 3.167 0 0 0-2.532 1.238c-.438.469-.63.638-1.083.638-.543 0-.984.42-.984.937 0 .517.44.937.984.937 1-.017 1.935-.476 2.53-1.242.438-.468.63-.632 1.083-.632.453 0 .65.182 1.083.632.583.78 1.525 1.242 2.53 1.242a3.158 3.158 0 0 0 2.53-1.242c.438-.43.63-.632 1.072-.632.443 0 .645.182 1.078.632.583.78 1.526 1.242 2.53 1.242a3.157 3.157 0 0 0 2.53-1.242c.433-.468.63-.632 1.078-.632.448 0 .645.182 1.078.632a3.287 3.287 0 0 0 2.535 1.242c.543 0 .984-.42.984-.937 0-.518-.44-.937-.984-.937zm0 4.876c-.452 0-.644-.183-1.077-.638a3.162 3.162 0 0 0-2.53-1.238 3.162 3.162 0 0 0-2.53 1.238c-.433.469-.625.638-1.078.638-.453 0-.645-.183-1.078-.638a3.156 3.156 0 0 0-2.527-1.238 3.156 3.156 0 0 0-2.528 1.238c-.433.474-.63.638-1.082.638-.453 0-.645-.183-1.078-.638a3.167 3.167 0 0 0-2.533-1.238 3.167 3.167 0 0 0-2.532 1.238c-.438.469-.63.638-1.083.638-.543 0-.984.42-.984.937 0 .517.44.937.984.937 1-.017 1.935-.476 2.53-1.242.438-.468.63-.632 1.083-.632.453 0 .65.182 1.083.632.583.78 1.525 1.242 2.53 1.242a3.158 3.158 0 0 0 2.53-1.242c.438-.43.63-.632 1.072-.632.443 0 .645.182 1.078.632.583.78 1.526 1.242 2.53 1.242a3.157 3.157 0 0 0 2.53-1.242c.433-.468.63-.632 1.078-.632.448 0 .645.182 1.078.632A3.287 3.287 0 0 0 23.64 25c.543 0 .984-.42.984-.937 0-.518-.44-.937-.984-.937zM7.616 14.125c.547 0 .991-.42.991-.938v-1.874h7.929v1.874c0 .518.443.938.99.938.548 0 .992-.42.992-.938V3.813c0-.518.444-.938.99-.938.548 0 .992-.42.992-.938 0-.517-.444-.937-.991-.937-1.642 0-2.973 1.26-2.973 2.813v.937H8.607v-.938c0-.517.444-.937.991-.937.548 0 .991-.42.991-.938 0-.517-.443-.937-.99-.937-1.643 0-2.974 1.26-2.974 2.813v9.374c0 .518.444.938.991.938zm8.92-7.5v2.813H8.607V6.624h7.929z" stroke-width=".5" fill="#D8D8D8" stroke="#D8D8D8"/></svg>