<?xml version="1.0" encoding="UTF-8"?>
<svg width="25px" height="26px" viewBox="0 0 25 26" version="1.1" xmlns="http://www.w3.org/2000/svg" xmlns:xlink="http://www.w3.org/1999/xlink">
    <!-- Generator: sketchtool 51.3 (57544) - http://www.bohemiancoding.com/sketch -->
    <title>76F80C22-1EAA-4020-8FE0-2D8C15FF372D</title>
    <desc>Created with sketchtool.</desc>
    <defs></defs>
    <g id="Symbols" stroke="none" stroke-width="1" fill="none" fill-rule="evenodd">
        <g id="icon/cinza/pool" transform="translate(1.000000, 1.000000)" fill="#D8D8D8" stroke="#D8D8D8">
            <g id="icon/cinza/piscina/large">
                <g id="noun_Pool_1515668">
                    <path d="M22.640625,17.2506714 C22.1878125,17.2506714 21.9958594,17.0679243 21.5627344,16.6133996 C20.9786984,15.8362144 20.0366355,15.3750944 19.0328906,15.3750944 C18.0291457,15.3750944 17.0870828,15.8362144 16.5030469,16.6133996 C16.0699219,17.0819818 15.8779688,17.2506714 15.4251563,17.2506714 C14.9723438,17.2506714 14.7803906,17.0679243 14.3472656,16.6133996 C13.7643061,15.8362455 12.8229752,15.375 11.8198828,15.375 C10.8167904,15.375 9.87545954,15.8362455 9.2925,16.6133996 C8.859375,17.0866676 8.6625,17.2506714 8.2096875,17.2506714 C7.756875,17.2506714 7.56492188,17.0679243 7.13179688,16.6133996 C6.54668636,15.8361815 5.60389078,15.3751852 4.59949219,15.3751852 C3.5950936,15.3751852 2.65229802,15.8361815 2.0671875,16.6133996 C1.62914063,17.0819818 1.4371875,17.2506714 0.984375,17.2506714 C0.440719699,17.2506714 0,17.6702541 0,18.1878357 C0,18.7054172 0.440719699,19.125 0.984375,19.125 C1.98450828,19.1078003 2.91940436,18.6489181 3.51421875,17.8832573 C3.95226563,17.4146751 4.14421875,17.2506714 4.59703125,17.2506714 C5.04984375,17.2506714 5.24671875,17.4334184 5.67984375,17.8832573 C6.26255637,18.6623283 7.20509922,19.1249424 8.2096875,19.1249424 C9.21427578,19.1249424 10.1568186,18.6623283 10.7395313,17.8832573 C11.1775781,17.4521617 11.3695313,17.2506714 11.8125,17.2506714 C12.2554688,17.2506714 12.4572656,17.4334184 12.8903906,17.8832573 C13.4731032,18.6623283 14.4156461,19.1249424 15.4202344,19.1249424 C16.4248227,19.1249424 17.3673655,18.6623283 17.9500781,17.8832573 C18.3832031,17.4146751 18.5800781,17.2506714 19.0279688,17.2506714 C19.4758594,17.2506714 19.6727344,17.4334184 20.1058594,17.8832573 C20.7032208,18.6485296 21.6393158,19.1071081 22.640625,19.125 C23.1842803,19.125 23.625,18.7054172 23.625,18.1878357 C23.625,17.6702541 23.1842803,17.2506714 22.640625,17.2506714 Z" id="Shape" stroke-width="0.5" fill-rule="nonzero"></path>
                    <path d="M22.640625,22.1256714 C22.1878125,22.1256714 21.9958594,21.9429243 21.5627344,21.4883996 C20.9786984,20.7112144 20.0366355,20.2500944 19.0328906,20.2500944 C18.0291457,20.2500944 17.0870828,20.7112144 16.5030469,21.4883996 C16.0699219,21.9569818 15.8779688,22.1256714 15.4251563,22.1256714 C14.9723438,22.1256714 14.7803906,21.9429243 14.3472656,21.4883996 C13.7643061,20.7112455 12.8229752,20.25 11.8198828,20.25 C10.8167904,20.25 9.87545954,20.7112455 9.2925,21.4883996 C8.859375,21.9616676 8.6625,22.1256714 8.2096875,22.1256714 C7.756875,22.1256714 7.56492188,21.9429243 7.13179688,21.4883996 C6.54668636,20.7111815 5.60389078,20.2501852 4.59949219,20.2501852 C3.5950936,20.2501852 2.65229802,20.7111815 2.0671875,21.4883996 C1.62914063,21.9569818 1.4371875,22.1256714 0.984375,22.1256714 C0.440719699,22.1256714 0,22.5452541 0,23.0628357 C0,23.5804172 0.440719699,24 0.984375,24 C1.98450828,23.9828003 2.91940436,23.5239181 3.51421875,22.7582573 C3.95226563,22.2896751 4.14421875,22.1256714 4.59703125,22.1256714 C5.04984375,22.1256714 5.24671875,22.3084184 5.67984375,22.7582573 C6.26255637,23.5373283 7.20509922,23.9999424 8.2096875,23.9999424 C9.21427578,23.9999424 10.1568186,23.5373283 10.7395313,22.7582573 C11.1775781,22.3271617 11.3695313,22.1256714 11.8125,22.1256714 C12.2554688,22.1256714 12.4572656,22.3084184 12.8903906,22.7582573 C13.4731032,23.5373283 14.4156461,23.9999424 15.4202344,23.9999424 C16.4248227,23.9999424 17.3673655,23.5373283 17.9500781,22.7582573 C18.3832031,22.2896751 18.5800781,22.1256714 19.0279688,22.1256714 C19.4758594,22.1256714 19.6727344,22.3084184 20.1058594,22.7582573 C20.7032208,23.5235296 21.6393158,23.9821081 22.640625,24 C23.1842803,24 23.625,23.5804172 23.625,23.0628357 C23.625,22.5452541 23.1842803,22.1256714 22.640625,22.1256714 Z" id="Shape" stroke-width="0.5" fill-rule="nonzero"></path>
                    <path d="M6.61607143,13.125 C7.16342506,13.125 7.60714286,12.705267 7.60714286,12.1875 L7.60714286,10.3125 L15.5357143,10.3125 L15.5357143,12.1875 C15.5357143,12.705267 15.9794321,13.125 16.5267857,13.125 C17.0741394,13.125 17.5178571,12.705267 17.5178571,12.1875 L17.5178571,2.8125 C17.5178571,2.29473305 17.9615749,1.875 18.5089286,1.875 C19.0562822,1.875 19.5,1.45526695 19.5,0.9375 C19.5,0.419733047 19.0562822,0 18.5089286,0 C16.8668677,0 15.5357143,1.25919914 15.5357143,2.8125 L15.5357143,3.75 L7.60714286,3.75 L7.60714286,2.8125 C7.60714286,2.29473305 8.05086065,1.875 8.59821429,1.875 C9.14556792,1.875 9.58928571,1.45526695 9.58928571,0.9375 C9.58928571,0.419733047 9.14556792,0 8.59821429,0 C6.95615338,0 5.625,1.25919914 5.625,2.8125 L5.625,12.1875 C5.625,12.705267 6.06871779,13.125 6.61607143,13.125 Z M15.5357143,5.625 L15.5357143,8.4375 L7.60714286,8.4375 L7.60714286,5.625 L15.5357143,5.625 Z" id="Shape" stroke-width="0.5" fill-rule="nonzero"></path>
                </g>
            </g>
        </g>
    </g>
</svg>