<svg width="24" height="24" xmlns="http://www.w3.org/2000/svg"><g fill="none"><path d="M7.688 22.688h8.625v-2.625a1.5 1.5 0 0 0-1.5-1.5H9.186a1.5 1.5 0 0 0-1.5 1.5v2.625zm8.625-21.375H7.688v2.624a1.5 1.5 0 0 0 1.5 1.5h5.624a1.5 1.5 0 0 0 1.5-1.5V1.314z" stroke="#D8D8D8" stroke-width="2.625"/><path fill="#D8D8D8" d="M2.625 10.875H9V13.5H2.625zm12.375 0h6.375V13.5H15z"/><rect stroke="#D8D8D8" stroke-width="2.625" x="1.313" y="1.313" width="21.375" height="21.375" rx="5.625"/><rect stroke="#D8D8D8" stroke-width="1.95" transform="rotate(-90 12 12)" x="9.6" y="9.6" width="4.8" height="4.8" rx="2.4"/></g></svg>