<svg xmlns="http://www.w3.org/2000/svg" width="16" height="24" viewBox="0 0 16 24">
    <path fill="#D8D8D8" fill-rule="nonzero" stroke="#D8D8D8" stroke-width="1.43" d="M13.775 13.1A6.66 6.66 0 0 0 15 9.25c0-1.966-.51-3.894-1.474-5.58L12.25 1.445A.868.868 0 0 0 11.5 1h-7a.868.868 0 0 0-.75.445L2.474 3.67A11.254 11.254 0 0 0 1 9.25c0 3.544 2.742 6.417 6.125 6.417v5.5H4.5c-.483 0-.875.41-.875.916 0 .507.392.917.875.917h7c.483 0 .875-.41.875-.917 0-.506-.392-.916-.875-.916H8.875v-5.5c1.927-.005 3.74-.955 4.9-2.567zm-9.8-8.48l1.022-1.787h6.006l1.022 1.781a9.315 9.315 0 0 1 1.026 2.803H2.949a9.315 9.315 0 0 1 1.026-2.803v.007zM3.625 12a4.757 4.757 0 0 1-.875-2.75h10.5c0 1.216-.46 2.381-1.281 3.24a4.277 4.277 0 0 1-3.094 1.343h-1.75c-1.376-.003-2.672-.682-3.5-1.833z"/>
</svg>
