<svg width="24" height="24" xmlns="http://www.w3.org/2000/svg"><g fill="none"><path d="M3.562 11.812h16.875V5.625a4.312 4.312 0 0 0-4.312-4.313h-8.25a4.313 4.313 0 0 0-4.313 4.313v6.187z" stroke="#D8D8D8" stroke-width="2.625"/><rect stroke="#D8D8D8" stroke-width="2.625" x="1.313" y="11.813" width="21.375" height="8.625" rx="1.875"/><path d="M13.312 11.438h3V8.812a.375.375 0 0 0-.375-.374h-2.25a.375.375 0 0 0-.374.374v2.626zm-5.624 0h3V8.812a.375.375 0 0 0-.376-.374h-2.25a.375.375 0 0 0-.374.374v2.626z" stroke="#D8D8D8" stroke-width="1.875"/><path d="M20.812 21.563v.937a1.313 1.313 0 0 1-2.625 0v-.938h2.625zm-14.999 0v.937a1.313 1.313 0 1 1-2.625 0v-.938h2.624z" fill="#D8D8D8"/></g></svg>