<?xml version="1.0" encoding="utf-8"?>
<!-- Generator: Adobe Illustrator 23.0.1, SVG Export Plug-In . SVG Version: 6.00 Build 0)  -->
<svg version="1.1" xmlns="http://www.w3.org/2000/svg" xmlns:xlink="http://www.w3.org/1999/xlink" x="0px" y="0px"
	 viewBox="0 0 73 67" style="enable-background:new 0 0 73 67;" xml:space="preserve">
<style type="text/css">
	.st0{fill:#FFFFFF;}
</style>
<g id="Camada_2">
</g>
<g id="Camada_1">
	<path class="st0" d="M62.5,33.5c0,14.2-11.5,25.7-25.7,25.7S11.1,47.7,11.1,33.5c0-0.2,0.1-0.5,0.2-0.6l-2.5,2.5
		c-0.2,0.2-0.6,0.4-0.9,0.4s-0.7-0.2-0.9-0.4c-0.5-0.5-0.5-1.4,0-1.8l4.7-4.7c0.2-0.2,0.3-0.2,0.5-0.3c0.4-0.2,0.8-0.2,1.2,0.2
		c0.1,0.1,0.2,0.1,0.2,0.2l4.7,4.7c0.5,0.5,0.5,1.4,0,1.8c-0.2,0.2-0.6,0.4-0.9,0.4s-0.7-0.2-0.9-0.4l-2.5-2.5
		c0.1,0.2,0.2,0.4,0.2,0.6c0,12.7,10.4,23.1,23.1,23.1s23.1-10.4,23.1-23.1S49.8,10.4,37.1,10.4c-6.3,0-12.1,2.5-16.5,7
		c-0.5,0.5-1.4,0.5-1.8,0c-0.5-0.5-0.5-1.4,0-1.8c4.9-5,11.4-7.7,18.4-7.7C51,7.8,62.5,19.3,62.5,33.5z M36.8,19.6
		c-0.7,0-1.3,0.6-1.3,1.3v2.8h-0.6c-3.1,0-5.5,2.5-5.5,5.5s2.5,5.5,5.5,5.5h3.8c1.6,0,2.9,1.3,2.9,2.9s-1.3,2.9-2.9,2.9h-0.1h-0.1
		h-6.8c-0.7,0-1.3,0.6-1.3,1.3c0,0.7,0.6,1.3,1.3,1.3h3.7v2.8c0,0.7,0.6,1.3,1.3,1.3c0.7,0,1.3-0.6,1.3-1.3v-2.8h0.5h0.1h0.1
		c3.1,0,5.5-2.5,5.5-5.5c0-3.1-2.5-5.5-5.5-5.5h-3.8c-1.6,0-2.9-1.3-2.9-2.9c0-1.6,1.3-2.9,2.9-2.9h6.8c0.7,0,1.3-0.6,1.3-1.3
		c0-0.7-0.6-1.3-1.3-1.3h-3.5v-2.8C38.2,20.2,37.6,19.6,36.8,19.6z"/>
</g>
</svg>
