<svg xmlns="http://www.w3.org/2000/svg" viewBox="0 0 73 67"><path d="M62.5 33.5c0 14.2-11.5 25.7-25.7 25.7S11.1 47.7 11.1 33.5c0-.2.1-.5.2-.6l-2.5 2.5c-.2.2-.6.4-.9.4s-.7-.2-.9-.4c-.5-.5-.5-1.4 0-1.8l4.7-4.7c.2-.2.3-.2.5-.3.4-.2.8-.2 1.2.2.1.1.2.1.2.2l4.7 4.7c.5.5.5 1.4 0 1.8-.2.2-.6.4-.9.4s-.7-.2-.9-.4L14 33c.1.2.2.4.2.6 0 12.7 10.4 23.1 23.1 23.1s23.1-10.4 23.1-23.1-10.6-23.2-23.3-23.2c-6.3 0-12.1 2.5-16.5 7-.5.5-1.4.5-1.8 0-.5-.5-.5-1.4 0-1.8 4.9-5 11.4-7.7 18.4-7.7C51 7.8 62.5 19.3 62.5 33.5zM36.8 19.6c-.7 0-1.3.6-1.3 1.3v2.8h-.6c-3.1 0-5.5 2.5-5.5 5.5s2.5 5.5 5.5 5.5h3.8c1.6 0 2.9 1.3 2.9 2.9s-1.3 2.9-2.9 2.9h-7c-.7 0-1.3.6-1.3 1.3 0 .7.6 1.3 1.3 1.3h3.7v2.8c0 .7.6 1.3 1.3 1.3.7 0 1.3-.6 1.3-1.3v-2.8h.7c3.1 0 5.5-2.5 5.5-5.5 0-3.1-2.5-5.5-5.5-5.5h-3.8c-1.6 0-2.9-1.3-2.9-2.9 0-1.6 1.3-2.9 2.9-2.9h6.8c.7 0 1.3-.6 1.3-1.3 0-.7-.6-1.3-1.3-1.3h-3.5v-2.8c0-.7-.6-1.3-1.4-1.3z" fill="#fff"/></svg>