<svg width="64" height="64" xmlns="http://www.w3.org/2000/svg"><g stroke="#D8D8D8" fill="none"><path d="M3 27.5C3 36.097 9.53 43 17.5 43S32 36.097 32 27.5C32 18.903 25.47 12 17.5 12S3 18.903 3 27.5zm29-9C32 27.097 38.53 34 46.5 34S61 27.097 61 18.5C61 9.903 54.47 3 46.5 3S32 9.903 32 18.5z" stroke-width="6"/><path d="M24.082 60.677c.513-2.636-.287-5.1-2.85-7.656-1.693-1.69-1.1-2.994-.836-4.427.42-2.28.053-1.384 1.025-1.845 1.02-.485 1.557-1.3.537-.816-.136.065-1.786.778-3.281.823-1.039.032-1.995-1.203-2.349.718-.504 2.728-.968 5.448 1.677 8.086 1.595 1.59 2.275 3.068 2.02 4.39-.288 1.496.613 3.283 1.933 2.871.6-.187 1.847-.729 2.124-2.144zm24.638.773c0 .327-.066.66-.208.975-.506 1.13-1.772 1.613-2.835 1.076-.602-.303-5.91-3.118-6.825-8.358-.53-3.056.542-6.104 3.191-9.068 1.75-1.958 2.499-3.794 2.226-5.455-.434-2.643-.218-1.364-1.223-1.9-1.054-.561 1.033-2.56 2.087-2 .237.126 2.448-2.318 3.34 3.117.52 3.162-.605 6.315-3.34 9.374-1.648 1.844-2.35 3.556-2.087 5.09.432 2.523 3.368 4.533 4.463 5.094.764.392 1.211 1.207 1.211 2.055z" fill="#D8D8D8"/><path fill="#D8D8D8" d="M13.389 42L12 48.667h12.5L23.111 42zm28-9L40 39.667h12.5L51.111 33z"/></g></svg>