<svg width="19" height="17" viewBox="0 0 19 17" fill="none" xmlns="http://www.w3.org/2000/svg">
<path d="M3 0H16C16.7956 0 17.5587 0.316071 18.1213 0.87868C18.6839 1.44129 19 2.20435 19 3V10C19 10.7956 18.6839 11.5587 18.1213 12.1213C17.5587 12.6839 16.7956 13 16 13H11.492L12 16H13V17H6V16H7L7.508 13H3C2.20435 13 1.44129 12.6839 0.87868 12.1213C0.316071 11.5587 0 10.7956 0 10V3C0 2.20435 0.316071 1.44129 0.87868 0.87868C1.44129 0.316071 2.20435 0 3 0ZM8.508 13L8 16H11L10.492 13H8.508ZM3 1C2.46957 1 1.96086 1.21071 1.58579 1.58579C1.21071 1.96086 1 2.46957 1 3V10C1 10.5304 1.21071 11.0391 1.58579 11.4142C1.96086 11.7893 2.46957 12 3 12H16C16.5304 12 17.0391 11.7893 17.4142 11.4142C17.7893 11.0391 18 10.5304 18 10V3C18 2.46957 17.7893 1.96086 17.4142 1.58579C17.0391 1.21071 16.5304 1 16 1H3Z" fill="#E3072A"/>
</svg>
