<svg xmlns="http://www.w3.org/2000/svg" width="24" height="24"><path fill="#D8D8D8" stroke="#D8D8D8" d="M22.933 13.567a.619.619 0 0 0-.812-.248l-3.487 1.706-5.439-3.024 5.439-3.025 3.487 1.706a.625.625 0 0 0 .275.064c.219 0 .43-.114.537-.312a.56.56 0 0 0-.26-.772L19.869 8.29l2.805-1.56a.559.559 0 0 0 .216-.785.62.62 0 0 0-.825-.206l-2.806 1.56.12-2.997a.586.586 0 0 0-.58-.595c-.34-.005-.613.235-.626.551l-.148 3.727-5.422 3.016V5.025l3.308-2.002a.557.557 0 0 0 .185-.792.622.622 0 0 0-.832-.176l-2.66 1.61V.574C12.604.257 12.334 0 12 0c-.333 0-.604.257-.604.574v3.09l-2.66-1.61a.622.622 0 0 0-.833.177.558.558 0 0 0 .185.792l3.308 2.002V11L5.975 7.985l-.148-3.727c-.012-.317-.3-.558-.626-.552-.332.012-.592.279-.58.595l.12 2.998-2.806-1.56a.62.62 0 0 0-.825.205.559.559 0 0 0 .216.785l2.806 1.56-2.804 1.372a.56.56 0 0 0-.261.773.608.608 0 0 0 .537.311c.092 0 .187-.02.275-.063l3.487-1.706L10.805 12l-5.44 3.025-3.486-1.706a.619.619 0 0 0-.812.248.56.56 0 0 0 .26.772l2.805 1.372-2.806 1.56a.558.558 0 0 0-.216.785.623.623 0 0 0 .825.206l2.805-1.56-.119 2.997a.588.588 0 0 0 .58.596h.023a.59.59 0 0 0 .603-.552l.148-3.727L11.397 13v5.974l-3.308 2.002a.557.557 0 0 0-.185.792.627.627 0 0 0 .833.176l2.66-1.61v3.091c0 .317.27.574.603.574.333 0 .603-.257.603-.574v-3.091l2.66 1.61a.626.626 0 0 0 .833-.176.557.557 0 0 0-.185-.792l-3.308-2.002V13l5.422 3.015.148 3.727a.59.59 0 0 0 .602.552h.023c.333-.012.593-.279.58-.595l-.119-2.997 2.806 1.56a.624.624 0 0 0 .825-.206.558.558 0 0 0-.216-.785l-2.806-1.56 2.804-1.372a.56.56 0 0 0 .261-.772z"/></svg>