<svg width="16" height="13" xmlns="http://www.w3.org/2000/svg"><path d="M14.355 3.241c.01.142.01.284.01.427 0 4.335-3.299 9.33-9.33 9.33A9.267 9.267 0 0 1 0 11.524c.264.03.518.041.792.041a6.567 6.567 0 0 0 4.07-1.401A3.285 3.285 0 0 1 1.797 7.89c.203.03.406.05.62.05.294 0 .588-.04.862-.111A3.28 3.28 0 0 1 .65 4.612v-.04c.437.243.945.395 1.483.415A3.277 3.277 0 0 1 .67 2.257c0-.61.162-1.168.447-1.655a9.321 9.321 0 0 0 6.761 3.431 3.702 3.702 0 0 1-.081-.751 3.278 3.278 0 0 1 3.28-3.28c.943 0 1.796.397 2.395 1.036a6.456 6.456 0 0 0 2.081-.792 3.27 3.27 0 0 1-1.441 1.807c.66-.07 1.3-.253 1.888-.507a7.049 7.049 0 0 1-1.645 1.695z" fill="#3D4345"/></svg>