<?xml version="1.0" encoding="UTF-8"?>
<svg width="16px" height="13px" viewBox="0 0 16 13" version="1.1" xmlns="http://www.w3.org/2000/svg" xmlns:xlink="http://www.w3.org/1999/xlink">
    <!-- Generator: sketchtool 51.3 (57544) - http://www.bohemiancoding.com/sketch -->
    <title>B8D774B5-7B7D-4F19-BC1E-4D18DDD93335</title>
    <desc>Created with sketchtool.</desc>
    <defs></defs>
    <g id="Symbols" stroke="none" stroke-width="1" fill="none" fill-rule="evenodd">
        <g id="footer" transform="translate(-1058.000000, -325.000000)" fill="#3D4345" fill-rule="nonzero">
            <g id="•-FOOTER">
                <g id="03" transform="translate(4.000000, 293.000000)">
                    <g id="Social-Icons" transform="translate(981.000000, 31.000000)">
                        <path d="M87.3553125,4.241125 C87.3654687,4.38325 87.3654687,4.52540625 87.3654687,4.66753125 C87.3654687,9.00253125 84.066,13.9974687 78.0355313,13.9974687 C76.1776562,13.9974687 74.4517812,13.459375 73,12.5254062 C73.2639688,12.5558437 73.51775,12.566 73.791875,12.566 C75.3248437,12.566 76.7360312,12.04825 77.8629375,11.165 C76.4213125,11.1345312 75.2131875,10.190375 74.7969375,8.890875 C75,8.9213125 75.2030312,8.941625 75.41625,8.941625 C75.7106562,8.941625 76.0050938,8.901 76.2791875,8.82996875 C74.7766563,8.525375 73.6497188,7.20559375 73.6497188,5.6116875 L73.6497188,5.57109375 C74.08625,5.81475 74.5939063,5.96703125 75.1319375,5.9873125 C74.2486875,5.39846875 73.6700312,4.39340625 73.6700312,3.25634375 C73.6700312,2.64721875 73.8324375,2.08884375 74.1167188,1.60153125 C75.7309375,3.591375 78.1573437,4.89084375 80.878125,5.033 C80.827375,4.78934375 80.7969063,4.5355625 80.7969063,4.28175 C80.7969063,2.474625 82.2588437,1.0025625 84.0760937,1.0025625 C85.02025,1.0025625 85.8730312,1.3985 86.4720313,2.03809375 C87.213125,1.89596875 87.9237813,1.62184375 88.55325,1.24621875 C88.3095625,2.00765625 87.7918125,2.64725 87.111625,3.0533125 C87.7715312,2.98228125 88.411125,2.7995 88.9999375,2.54571875 C88.5533125,3.1954375 87.9949062,3.77409375 87.3553125,4.241125 Z" id="twiter"></path>
                    </g>
                </g>
            </g>
        </g>
    </g>
</svg>