<svg width="24" height="24" xmlns="http://www.w3.org/2000/svg"><g fill="none"><path d="M20.437 20.063h-3v2.625c0 .207.168.375.375.375h2.25a.375.375 0 0 0 .375-.375v-2.625zm-13.874 0h-3v2.625c0 .207.167.375.374.375h2.25a.375.375 0 0 0 .375-.375v-2.625z" stroke="#D8D8D8" stroke-width="1.875"/><path d="M4.248 9.938h15.49l-1.114-5.214a4.313 4.313 0 0 0-4.218-3.411H9.58a4.312 4.312 0 0 0-4.217 3.41L4.248 9.939z" stroke="#D8D8D8" stroke-width="2.625"/><rect stroke="#D8D8D8" stroke-width="2.625" x="1.313" y="9.938" width="21.375" height="9.75" rx="1.875"/><rect stroke="#D8D8D8" stroke-width="1.5" transform="rotate(-90 17.438 14.812)" x="15.75" y="13.125" width="3.375" height="3.375" rx="1.688"/><rect fill="#D8D8D8" x="10.125" y="13.125" width="3.75" height="1.125" rx=".563"/><rect fill="#D8D8D8" x="10.125" y="15.375" width="3.75" height="1.125" rx=".563"/><rect stroke="#D8D8D8" stroke-width="1.5" transform="rotate(-90 6.563 14.813)" x="4.875" y="13.125" width="3.375" height="3.375" rx="1.688"/></g></svg>