<svg xmlns="http://www.w3.org/2000/svg" width="36" height="36"><path fill="#3D4345" d="M30.608 5.231A17.705 17.705 0 0 0 17.992 0C8.156 0 .152 8.004.152 17.84c0 3.141.82 6.21 2.38 8.919L0 36l9.458-2.483a17.785 17.785 0 0 0 8.526 2.17h.008C27.82 35.687 36 27.683 36 17.847c0-4.765-2.025-9.24-5.392-12.616zm-12.616 27.45c-2.668 0-5.28-.715-7.554-2.065l-.538-.321-5.609 1.47 1.495-5.472-.354-.563a14.778 14.778 0 0 1-2.266-7.89C3.166 9.666 9.82 3.012 18 3.012c3.962 0 7.682 1.543 10.479 4.348 2.796 2.804 4.516 6.525 4.508 10.486 0 8.18-6.823 14.834-14.995 14.834zm8.132-11.105c-.442-.225-2.636-1.302-3.045-1.447-.41-.152-.708-.225-1.005.225-.297.45-1.149 1.447-1.414 1.752-.257.298-.523.338-.964.113-2.62-1.31-4.34-2.339-6.067-5.304-.458-.787.458-.731 1.31-2.435.144-.297.072-.554-.04-.78-.113-.224-1.005-2.418-1.375-3.31-.361-.868-.731-.747-1.004-.763-.258-.016-.555-.016-.852-.016-.297 0-.78.112-1.19.554-.41.45-1.558 1.527-1.558 3.72 0 2.194 1.599 4.316 1.816 4.613.225.298 3.142 4.798 7.618 6.734 2.828 1.222 3.937 1.326 5.351 1.117.86-.128 2.636-1.077 3.006-2.121.37-1.045.37-1.937.257-2.122-.105-.2-.402-.313-.844-.53z"/></svg>