<?xml version="1.0" encoding="UTF-8"?>
<svg width="33px" height="16px" viewBox="0 0 33 16" version="1.1" xmlns="http://www.w3.org/2000/svg" xmlns:xlink="http://www.w3.org/1999/xlink">
    <!-- Generator: sketchtool 51.3 (57544) - http://www.bohemiancoding.com/sketch -->
    <title>E2D4879A-5155-4438-B206-BCD799E1891D</title>
    <desc>Created with sketchtool.</desc>
    <defs></defs>
    <g id="Page-1" stroke="none" stroke-width="1" fill="none" fill-rule="evenodd">
        <g id="Mainpage" transform="translate(-1177.000000, -677.000000)" fill="#FFFFFF">
            <g id="•-HEADER" transform="translate(0.000000, -1.000000)">
                <g id="Ver-Detalhes" transform="translate(1138.000000, 608.000000)">
                    <g id="arrow" transform="translate(55.623614, 77.832831) rotate(-89.000000) translate(-55.623614, -77.832831) translate(47.623614, 61.332831)">
                        <polygon id="Fill-2" transform="translate(8.404975, 15.829319) rotate(90.000000) translate(-8.404975, -15.829319) " points="-6.76570644 16.7487539 23.5756563 16.7487539 23.5756563 14.9098834 -6.76570644 14.9098834"></polygon>
                        <path d="M15.912738,24.3340949 C15.912738,24.4590949 15.8740782,24.5840949 15.7580988,24.7090949 L8.76067611,32.2507615 C8.64469673,32.3757615 8.52871735,32.4174282 8.41273797,32.4174282 C8.29675859,32.4174282 8.1807792,32.3757615 8.06479982,32.2507615 L1.06737714,24.7090949 C0.951397762,24.5840949 0.912737968,24.4590949 0.912737968,24.3340949 C0.912737968,24.2090949 0.951397762,24.0840949 1.06737714,23.9590949 L1.80191323,23.1674282 C1.91789261,23.0424282 2.03387199,23.0007615 2.14985137,23.0007615 C2.26583075,23.0007615 2.38181013,23.0424282 2.49778951,23.1674282 L8.41273797,29.5424282 L14.3276864,23.1674282 C14.4436658,23.0424282 14.5596452,23.0007615 14.6756246,23.0007615 C14.7916039,23.0007615 14.9075833,23.0424282 15.0235627,23.1674282 L15.7580988,23.9590949 C15.8354184,24.0840949 15.912738,24.2090949 15.912738,24.3340949 Z" id="Shape" fill-rule="nonzero"></path>
                    </g>
                </g>
            </g>
        </g>
    </g>
</svg>