<svg width="21" height="15" viewBox="0 0 21 15" fill="none" xmlns="http://www.w3.org/2000/svg">
<path d="M4.5 9C5.07633 8.99988 5.63499 9.19889 6.08145 9.56335C6.52791 9.9278 6.83473 10.4353 6.95 11H14V1H3C2.46957 1 1.96086 1.21071 1.58579 1.58579C1.21071 1.96086 1 2.46957 1 3V11H2.05C2.16527 10.4353 2.47209 9.9278 2.91855 9.56335C3.36501 9.19889 3.92367 8.99988 4.5 9ZM4.5 14C3.92367 14.0001 3.36501 13.8011 2.91855 13.4367C2.47209 13.0722 2.16527 12.5647 2.05 12H0V3C0 2.20435 0.31607 1.44129 0.87868 0.87868C1.44129 0.316071 2.20435 0 3 0H14C14.2652 0 14.5196 0.105357 14.7071 0.292893C14.8946 0.48043 15 0.734784 15 1V3H18L21 6.981V12H18.95C18.8352 12.5651 18.5286 13.0732 18.0821 13.4382C17.6356 13.8031 17.0767 14.0025 16.5 14.0025C15.9233 14.0025 15.3644 13.8031 14.9179 13.4382C14.4714 13.0732 14.1648 12.5651 14.05 12H6.95C6.83473 12.5647 6.52791 13.0722 6.08145 13.4367C5.63499 13.8011 5.07633 14.0001 4.5 14ZM4.5 10C4.10218 10 3.72064 10.158 3.43934 10.4393C3.15804 10.7206 3 11.1022 3 11.5C3 11.8978 3.15804 12.2794 3.43934 12.5607C3.72064 12.842 4.10218 13 4.5 13C4.89782 13 5.27936 12.842 5.56066 12.5607C5.84196 12.2794 6 11.8978 6 11.5C6 11.1022 5.84196 10.7206 5.56066 10.4393C5.27936 10.158 4.89782 10 4.5 10ZM16.5 9C17.0763 8.99988 17.635 9.19889 18.0815 9.56335C18.5279 9.9278 18.8347 10.4353 18.95 11H20V7.316L19.762 7H15V9.5C15.4324 9.1748 15.959 8.99928 16.5 9ZM16.5 10C16.1022 10 15.7206 10.158 15.4393 10.4393C15.158 10.7206 15 11.1022 15 11.5C15 11.8978 15.158 12.2794 15.4393 12.5607C15.7206 12.842 16.1022 13 16.5 13C16.8978 13 17.2794 12.842 17.5607 12.5607C17.842 12.2794 18 11.8978 18 11.5C18 11.1022 17.842 10.7206 17.5607 10.4393C17.2794 10.158 16.8978 10 16.5 10ZM15 4V6H19.009L17.5 4H15Z" fill="#333333"/>
</svg>
