<?xml version="1.0" encoding="UTF-8"?>
<svg width="64px" height="64px" viewBox="0 0 64 64" version="1.1" xmlns="http://www.w3.org/2000/svg" xmlns:xlink="http://www.w3.org/1999/xlink">
    <!-- Generator: sketchtool 51.3 (57544) - http://www.bohemiancoding.com/sketch -->
    <title>F4434671-D5B3-4106-B42F-5DA8F0FD398D</title>
    <desc>Created with sketchtool.</desc>
    <defs></defs>
    <g id="Symbols" stroke="none" stroke-width="1" fill="none" fill-rule="evenodd">
        <g id="icon/cinza/academia/large" fill="#D8D8D8" fill-rule="nonzero" stroke="#D8D8D8">
            <path d="M66.8292872,33.8952232 L66.8292872,39.6291574 C66.8292872,40.2461786 66.6443536,40.8085611 66.1993071,41.0905163 C65.7538248,41.3727477 65.2981507,41.5459607 64.8384045,41.5459607 L58.8779127,41.5459607 L58.8779127,46.3353594 C58.8779127,46.9523806 58.6929791,47.5147631 58.2479327,47.7967183 C57.8024503,48.0789497 57.3467763,48.2521627 56.88703,48.2521627 L47.3453806,48.2521627 C46.2796392,48.2521627 45.3544979,47.3729901 45.3544979,46.3353594 L45.3544979,37.5789116 L19.0216481,37.5789116 L19.0216481,46.3353594 C19.0216481,47.3729901 18.0965067,48.2521627 17.0307653,48.2521627 L7.48911594,48.2521627 C6.42337454,48.2521627 5.49823322,47.3729901 5.49823322,46.3353594 L5.49823322,41.5459607 L-0.462258553,41.5459607 C-1.52799996,41.5459607 -2.45314127,40.6667881 -2.45314127,39.6291574 L-2.45314127,33.8952232 L-4.63673016,33.8952232 C-5.70247157,33.8952232 -6.62761288,33.0160506 -6.62761288,31.9784199 C-6.62761288,30.9407893 -5.70247157,30.0616167 -4.63673016,30.0616167 L-2.45314127,30.0616167 L-2.45314127,24.3276824 C-2.45314127,23.2900518 -1.52799996,22.4108792 -0.462258553,22.4108792 L5.49823322,22.4108792 L5.49823322,17.6214805 C5.49823322,16.5838498 6.42337454,15.7046772 7.48911594,15.7046772 L17.0307653,15.7046772 C18.0965067,15.7046772 19.0216481,16.5838498 19.0216481,17.6214805 L19.0216481,27.2280102 L45.4538901,27.2280102 L45.4538901,17.715934 C45.4538901,17.0989128 45.6388236,16.5365303 46.0838701,16.2545751 C46.5293525,15.9723437 46.9850265,15.7991308 47.4447728,15.7991308 L56.9864222,15.7991308 C58.0521636,15.7991308 58.9773049,16.6783033 58.9773049,17.715934 L58.9773049,22.5053328 L64.9377967,22.5053328 C66.0035381,22.5053328 66.9286794,23.3845053 66.9286794,24.422136 L66.9286794,30.1560702 L69.1122683,30.1560702 C70.1919714,30.1560702 71.1469053,31.0635551 71.0037588,31.9784199 C71.0037588,33.0160506 70.0786175,33.8952232 69.0128761,33.8952232 L66.8292872,33.8952232 Z M1.52862416,37.9012613 L5.49823322,37.9012613 L5.49823322,26.3389392 L1.52862416,26.3389392 L1.52862416,37.9012613 Z M15.0398826,44.6074633 L15.0398826,19.5382837 L9.47999866,19.5382837 L9.47999866,44.6074633 L15.0398826,44.6074633 Z M19.0216481,33.9342122 L45.3544979,33.9342122 L45.3544979,31.0616167 L19.0216481,31.0616167 L19.0216481,33.9342122 Z M49.4356555,44.6074633 L54.9955395,44.6074633 L54.9955395,19.6327372 L49.4356555,19.6327372 L49.4356555,44.6074633 Z M58.9773049,37.8068077 L62.9469139,37.8068077 L62.9469139,26.2444857 L58.9773049,26.2444857 L58.9773049,37.8068077 Z" id="Shape" transform="translate(32.192821, 31.978420) rotate(-44.000000) translate(-32.192821, -31.978420) "></path>
        </g>
    </g>
</svg>