<svg xmlns="http://www.w3.org/2000/svg" width="14" height="14" viewBox="0 0 14 14">
    <g fill="#FFF" fill-rule="nonzero">
        <path d="M11.667 2.333h-1.39L9.594.967A1.741 1.741 0 0 0 8.03 0H5.97a1.741 1.741 0 0 0-1.564.967l-.683 1.366h-1.39A2.333 2.333 0 0 0 0 4.667v7A2.333 2.333 0 0 0 2.333 14h9.334A2.333 2.333 0 0 0 14 11.667v-7a2.333 2.333 0 0 0-2.333-2.334zm1.166 9.334c0 .644-.522 1.166-1.166 1.166H2.333a1.167 1.167 0 0 1-1.166-1.166v-7c0-.645.522-1.167 1.166-1.167h1.75a.583.583 0 0 0 .522-.322l.845-1.689a.583.583 0 0 1 .52-.322h2.06c.22 0 .422.125.52.322l.845 1.689a.583.583 0 0 0 .522.322h1.75c.644 0 1.166.522 1.166 1.167v7z"/>
        <path d="M7 5.25a2.917 2.917 0 1 0 0 5.833A2.917 2.917 0 0 0 7 5.25zm0 4.667a1.75 1.75 0 1 1 0-3.5 1.75 1.75 0 0 1 0 3.5z"/>
    </g>
</svg>
