<?xml version="1.0" encoding="UTF-8"?>
<svg width="38px" height="37px" viewBox="0 0 38 37" version="1.1" xmlns="http://www.w3.org/2000/svg" xmlns:xlink="http://www.w3.org/1999/xlink">
    <!-- Generator: sketchtool 51.3 (57544) - http://www.bohemiancoding.com/sketch -->
    <title>26DE8161-6040-44CA-9D4C-4486B1E61D01</title>
    <desc>Created with sketchtool.</desc>
    <defs></defs>
    <g id="Symbols" stroke="none" stroke-width="1" fill="none" fill-rule="evenodd">
        <g id="icon/preto/telefone/medium" transform="translate(1.000000, 1.000000)" fill="#3D4345" stroke="#3D4345" stroke-width="0.4">
            <g id="phone-medium-black">
                <path d="M23.0973754,12.9385188 C22.31386,13.4566256 21.2757871,12.8868257 21.2757871,11.9386459 L21.2757871,3.57747612 C21.2757871,1.60125058 22.8581188,0 24.8092266,0 L32.4665605,0 C34.4176819,0 36,1.60107747 36,3.57747612 L36,7.16730516 C36,9.1437044 34.4156629,10.7447813 32.4637052,10.7447813 L26.414892,10.7447813 L23.0973754,12.9385188 Z M23.6316612,9.68842959 L23.6316612,9.73423101 L25.4209564,8.55104376 C25.6123911,8.42445531 25.8360307,8.3570521 26.0646071,8.3570521 L32.4637052,8.3570521 C33.1160874,8.3570521 33.6441259,7.82343463 33.6441259,7.16730516 L33.6441259,3.57747612 C33.6441259,2.92066376 33.1174355,2.38772917 32.4665605,2.38772917 L24.8092266,2.38772917 C24.1584175,2.38772917 23.6316612,2.92078374 23.6316612,3.57747612 L23.6316612,7.16730516 C23.6316612,8.45022726 23.6316612,9.04295238 23.6316612,9.68842959 Z M30.6992834,6.56625522 C30.048727,6.56625522 29.5213463,6.03174354 29.5213463,5.37239064 C29.5213463,4.71303773 30.048727,4.17852605 30.6992834,4.17852605 C31.3498397,4.17852605 31.8772204,4.71303773 31.8772204,5.37239064 C31.8772204,6.03174354 31.3498397,6.56625522 30.6992834,6.56625522 Z M26.5765037,6.56625522 C25.9259474,6.56625522 25.3985667,6.03174354 25.3985667,5.37239064 C25.3985667,4.71303773 25.9259474,4.17852605 26.5765037,4.17852605 C27.2270601,4.17852605 27.7544408,4.71303773 27.7544408,5.37239064 C27.7544408,6.03174354 27.2270601,6.56625522 26.5765037,6.56625522 Z M33.2900083,25.5785089 C34.5861066,26.6532569 34.6850951,28.5486387 33.5016141,29.7481222 L29.5421095,33.7611655 C26.0099046,37.341132 14.685857,32.6351016 8.50973992,26.3754744 C2.33306454,20.1152801 -2.31011058,8.639175 1.22258266,5.05871422 L5.18208724,1.04567093 C6.36441621,-0.15264498 8.23669941,-0.0522021676 9.29607296,1.26013796 L14.5477692,7.76587678 C15.5502436,9.00773055 15.4609572,10.8883687 14.3428682,12.021576 L11.8413181,14.556951 C11.5256745,14.876862 11.43934,15.5401021 11.6613258,15.9152478 C11.7292332,16.0460816 11.7802756,16.1441451 11.8635699,16.2920852 C12.00919,16.5507222 12.1894267,16.8457064 12.4053903,17.1701929 C13.0297935,18.1083627 13.8109584,19.0840569 14.7574202,20.0433157 C15.7038301,21.0025233 16.6676589,21.7949825 17.5952631,22.4290589 C17.9161543,22.6484089 18.2079935,22.8315787 18.4639751,22.9796603 C18.6104581,23.064399 18.7076379,23.1163841 18.7486837,23.1367466 C19.2030305,23.4012187 19.8590107,23.3146414 20.1705903,22.9988481 L22.6721405,20.4634731 C23.7898596,19.3306413 25.6467483,19.2405767 26.8710637,20.2558016 L33.2900083,25.5785089 Z M10.1754636,12.868571 L12.6770132,10.3331966 C12.9380069,10.0686738 12.9616022,9.57169129 12.7243998,9.27784778 L7.47270418,2.77210955 C7.29382031,2.55051038 7.0423443,2.53701971 6.84794169,2.73405035 L2.88843711,6.74709363 C0.672688668,8.99280246 4.83080639,19.2700371 10.1755944,24.687095 C15.5198429,30.1036055 25.6609601,34.3180352 27.8762551,32.0727861 L31.8357597,28.0597428 C32.0313131,27.8615445 32.0181179,27.6088858 31.7982082,27.4265325 L25.3792642,22.1038257 C25.0901054,21.86405 24.5984285,21.887898 24.3379949,22.1518531 L21.8364454,24.6872275 C20.7794583,25.7585067 18.9782972,26.0054056 17.6769259,25.2632827 C17.3749417,25.1103349 16.8925777,24.8287644 16.2779614,24.408635 C15.2299078,23.6922238 14.1493867,22.8038202 13.0915651,21.7316958 C12.0337953,20.6596227 11.1579732,19.5656995 10.4523236,18.5054558 C10.0414703,17.8881466 9.76532361,17.4028801 9.61409535,17.0970346 C8.86445151,15.7781647 9.11384021,13.9445492 10.1754636,12.868571 Z" id="Shape"></path>
            </g>
        </g>
    </g>
</svg>