<?xml version="1.0" encoding="UTF-8"?>
<svg width="64px" height="64px" viewBox="0 0 64 64" version="1.1" xmlns="http://www.w3.org/2000/svg" xmlns:xlink="http://www.w3.org/1999/xlink">
    <!-- Generator: sketchtool 51.3 (57544) - http://www.bohemiancoding.com/sketch -->
    <title>7391A6A5-F349-4E66-B859-A950CDCC984F</title>
    <desc>Created with sketchtool.</desc>
    <defs></defs>
    <g id="Symbols" stroke="none" stroke-width="1" fill="none" fill-rule="evenodd">
        <g id="icon/cinza/salao/large" fill-rule="nonzero" stroke="#D8D8D8">
            <path d="M3,27.5 C3,36.0965449 9.5302954,43 17.5,43 C25.4697046,43 32,36.0965449 32,27.5 C32,18.9034551 25.4697046,12 17.5,12 C9.5302954,12 3,18.9034551 3,27.5 Z" id="Rectangle-4" stroke-width="6"></path>
            <path d="M32,18.5 C32,27.0965449 38.5302954,34 46.5,34 C54.4697046,34 61,27.0965449 61,18.5 C61,9.90345514 54.4697046,3 46.5,3 C38.5302954,3 32,9.90345514 32,18.5 Z" id="Rectangle-4" stroke-width="6"></path>
            <path d="M13.7401828,50.3355402 C16.3763403,49.8221419 18.8405389,50.6224157 21.3964779,53.1856541 C23.0853443,54.8785924 24.3906926,54.285437 25.8232164,54.0216074 C28.1035604,53.6016566 27.2068801,53.9682332 27.668582,52.9958539 C28.1531016,51.9761879 28.9676444,51.4396533 28.4838378,52.4596946 C28.4196607,52.5948043 27.705817,54.2449765 27.6607374,55.7405275 C27.6294349,56.7790123 28.8637699,57.7356297 26.9427184,58.0890616 C24.2156467,58.5930776 21.4957054,59.0569308 18.8570522,56.4118789 C17.2665872,54.8176422 15.7894976,54.1376147 14.4671405,54.3924374 C12.9714667,54.679886 11.1841109,53.779182 11.5957369,52.4596946 C11.78333,51.8583554 12.3252371,50.6124634 13.7401828,50.3355402 Z" id="Shape" fill="#D8D8D8" transform="translate(20.083876, 54.333337) scale(-1, 1) rotate(-90.000000) translate(-20.083876, -54.333337) "></path>
            <path d="M32.2707065,55 C31.943348,55 31.6106162,54.9332738 31.2956576,54.7920626 C30.1651961,54.285409 29.6828384,53.019551 30.2189292,51.9565871 C30.5223145,51.3548875 33.3375149,46.0462755 38.5773176,45.1318938 C41.6334902,44.6011878 44.6818095,45.6734622 47.6449826,48.323113 C49.6029336,50.0731239 51.4393652,50.8214659 53.1001309,50.548742 C55.7437988,50.1146338 54.4647358,50.330718 55,49.3255577 C55.5617174,48.2715165 57.5608908,50.3586499 57,51.413079 C56.8739339,51.6497242 59.3178757,53.8606114 53.883394,54.7521044 C50.7218218,55.2731119 47.5685163,54.1473013 44.5094503,51.413079 C42.6655788,49.7650971 40.9531467,49.0621444 39.4201004,49.3255577 C36.8958853,49.7581141 34.8862678,52.6940668 34.3249637,53.7888419 C33.9331255,54.5527017 33.1184493,55 32.2707065,55 Z" id="Shape" fill="#D8D8D8" transform="translate(43.720356, 50.000000) rotate(-90.000000) translate(-43.720356, -50.000000) "></path>
            <polygon id="Path-2" fill="#D8D8D8" points="13.3888889 42 12 48.6666667 24.5 48.6666667 23.1111111 42"></polygon>
            <polygon id="Path-2" fill="#D8D8D8" points="41.3888889 33 40 39.6666667 52.5 39.6666667 51.1111111 33"></polygon>
        </g>
    </g>
</svg>